<svg width="110" height="28" viewBox="0 0 110 28" fill="none" xmlns="http://www.w3.org/2000/svg">
<path d="M38.3697 2.75485C39.5951 2.75485 40.5487 3.22036 41.2306 4.15137C41.9125 5.06963 42.2534 6.40239 42.2534 8.14963V16.3757H39.852V8.24529C39.852 7.30152 39.6593 6.59369 39.2739 6.12181C38.8984 5.63717 38.3994 5.39485 37.7768 5.39485C37.0949 5.39485 36.5514 5.64992 36.1462 6.16007C35.741 6.65746 35.5385 7.4163 35.5385 8.43659V16.3757H33.1371V8.24529C33.1371 7.30152 32.9592 6.59369 32.6034 6.12181C32.2477 5.63717 31.7635 5.39485 31.1508 5.39485C30.4788 5.39485 29.9402 5.64992 29.535 6.16007C29.1298 6.65746 28.9273 7.4163 28.9273 8.43659V16.3757H26.5259V2.98442H28.8531V4.62963C29.1694 4.03021 29.5894 3.57108 30.1131 3.25224C30.6369 2.92065 31.2397 2.75485 31.9216 2.75485C32.6331 2.75485 33.2557 2.92702 33.7893 3.27137C34.3229 3.60297 34.7331 4.0876 35.0196 4.72529C35.3754 4.0876 35.8399 3.60297 36.413 3.27137C36.9961 2.92702 37.6483 2.75485 38.3697 2.75485ZM44.1612 6.08355H46.4736V16.3757H44.1612V6.08355ZM45.3174 4.64876C44.8925 4.64876 44.5466 4.48934 44.2798 4.1705C44.013 3.85166 43.8795 3.4563 43.8795 2.98442C43.8795 2.51253 44.013 2.11717 44.2798 1.79833C44.5466 1.47949 44.8925 1.32007 45.3174 1.32007C45.7423 1.32007 46.0882 1.47311 46.355 1.7792C46.6219 2.08529 46.7553 2.46789 46.7553 2.92702C46.7553 3.42442 46.6219 3.83891 46.355 4.1705C46.0882 4.48934 45.7423 4.64876 45.3174 4.64876ZM56.5503 6.08355V14.654C56.5503 16.5415 56.1699 17.9444 55.4089 18.8627C54.648 19.7809 53.5363 20.2401 52.0737 20.2401C51.3029 20.2401 50.5716 20.1189 49.8798 19.8766C49.1881 19.6343 48.6149 19.2835 48.1603 18.8244L49.0794 16.6818C49.4154 17.0389 49.8403 17.3195 50.3542 17.5235C50.8681 17.7404 51.3819 17.8488 51.8958 17.8488C52.6963 17.8488 53.2843 17.6128 53.6598 17.1409C54.0452 16.6818 54.2379 15.9804 54.2379 15.0366V14.5966C53.6351 15.4511 52.7951 15.8783 51.7179 15.8783C50.9866 15.8783 50.3147 15.6743 49.702 15.2662C49.0991 14.8453 48.6198 14.2586 48.2641 13.5062C47.9083 12.7537 47.7305 11.8864 47.7305 10.9044C47.7305 9.92239 47.9083 9.05514 48.2641 8.30268C48.6198 7.55021 49.0991 6.96992 49.702 6.56181C50.3147 6.14094 50.9866 5.9305 51.7179 5.9305C52.8741 5.9305 53.7537 6.42152 54.3565 7.40355V6.08355H56.5503ZM52.1774 13.4296C52.7901 13.4296 53.2892 13.2001 53.6746 12.7409C54.0699 12.2691 54.2675 11.6569 54.2675 10.9044C54.2675 10.152 54.0699 9.54616 53.6746 9.08702C53.2892 8.61514 52.7901 8.3792 52.1774 8.3792C51.5648 8.3792 51.0608 8.61514 50.6655 9.08702C50.2702 9.54616 50.0725 10.152 50.0725 10.9044C50.0725 11.6569 50.2702 12.2691 50.6655 12.7409C51.0608 13.2001 51.5648 13.4296 52.1774 13.4296ZM62.2009 16.5288C61.3609 16.5288 60.6049 16.3056 59.9329 15.8592C59.2708 15.4001 58.752 14.7688 58.3765 13.9653C58.0009 13.1618 57.8132 12.2499 57.8132 11.2296C57.8132 10.2093 58.0009 9.29746 58.3765 8.49398C58.752 7.6905 59.2708 7.06557 59.9329 6.6192C60.6049 6.16007 61.3609 5.9305 62.2009 5.9305C63.0409 5.9305 63.7919 6.16007 64.454 6.6192C65.1161 7.06557 65.635 7.6905 66.0105 8.49398C66.386 9.29746 66.5738 10.2093 66.5738 11.2296C66.5738 12.2499 66.386 13.1618 66.0105 13.9653C65.635 14.7688 65.1161 15.4001 64.454 15.8592C63.7919 16.3056 63.0409 16.5288 62.2009 16.5288ZM62.2009 14.0801C62.7938 14.0801 63.278 13.825 63.6536 13.3149C64.039 12.792 64.2317 12.0969 64.2317 11.2296C64.2317 10.3624 64.039 9.67369 63.6536 9.16355C63.278 8.64065 62.7938 8.3792 62.2009 8.3792C61.6079 8.3792 61.1188 8.64065 60.7334 9.16355C60.348 9.67369 60.1553 10.3624 60.1553 11.2296C60.1553 12.0969 60.348 12.792 60.7334 13.3149C61.1188 13.825 61.6079 14.0801 62.2009 14.0801ZM71.3954 16.6053C70.5752 16.6053 69.7797 16.465 69.0088 16.1844C68.2479 15.8911 67.6352 15.5149 67.1707 15.0557L67.986 12.7218C68.4307 13.1427 68.9594 13.4806 69.5721 13.7357C70.1848 13.9908 70.7975 14.1183 71.4102 14.1183C72.0921 14.1183 72.5961 13.9908 72.9222 13.7357C73.2483 13.4679 73.4114 13.1172 73.4114 12.6835C73.4114 12.3647 73.3125 12.1033 73.1149 11.8992C72.9271 11.6824 72.6801 11.5102 72.3737 11.3827C72.0773 11.2551 71.6721 11.1149 71.1582 10.9618C70.3676 10.7195 69.7204 10.4772 69.2164 10.2349C68.7124 9.99253 68.2776 9.60355 67.9119 9.0679C67.5562 8.53224 67.3783 7.81804 67.3783 6.92529C67.3783 6.14732 67.5413 5.44587 67.8674 4.82094C68.1936 4.18326 68.6827 3.67949 69.335 3.30963C69.9971 2.93978 70.8025 2.75485 71.7512 2.75485C72.4133 2.75485 73.0605 2.85688 73.693 3.06094C74.3255 3.265 74.8789 3.55833 75.3532 3.94094L74.6121 6.29398C73.6535 5.59253 72.6949 5.24181 71.7363 5.24181C71.0643 5.24181 70.5653 5.3821 70.2392 5.66268C69.9229 5.94326 69.7648 6.31311 69.7648 6.77224C69.7648 7.23137 69.9476 7.57572 70.3133 7.80529C70.6888 8.0221 71.257 8.23891 72.018 8.45572C72.8086 8.69804 73.4558 8.94036 73.9598 9.18268C74.4638 9.425 74.8937 9.8076 75.2495 10.3305C75.6151 10.8534 75.7979 11.5612 75.7979 12.454C75.7979 13.2192 75.6299 13.9206 75.2939 14.5583C74.9678 15.1833 74.4737 15.6806 73.8116 16.0505C73.1495 16.4204 72.3441 16.6053 71.3954 16.6053ZM89.5939 6.08355V11.7653C89.5939 13.283 89.2727 14.4563 88.6304 15.2853C87.988 16.1143 87.0739 16.5288 85.8881 16.5288C85.3149 16.5288 84.806 16.414 84.3613 16.1844C83.9264 15.9549 83.5608 15.585 83.2643 15.0749C82.9679 15.585 82.6022 15.9549 82.1674 16.1844C81.7326 16.414 81.2187 16.5288 80.6258 16.5288C79.43 16.5288 78.5159 16.1143 77.8835 15.2853C77.251 14.4563 76.9348 13.283 76.9348 11.7653V6.08355H79.2472V11.5357C79.2472 12.3902 79.3609 13.0215 79.5881 13.4296C79.8154 13.825 80.1712 14.0227 80.6554 14.0227C81.1495 14.0227 81.5152 13.8186 81.7524 13.4105C81.9895 13.0024 82.1081 12.3775 82.1081 11.5357V6.08355H84.4206V11.5357C84.4206 12.3775 84.5391 13.0024 84.7763 13.4105C85.0135 13.8186 85.3791 14.0227 85.8732 14.0227C86.3575 14.0227 86.7132 13.825 86.9405 13.4296C87.1678 13.0215 87.2815 12.3902 87.2815 11.5357V6.08355H89.5939ZM99.4694 6.08355V16.3757H97.2607V15.1896C96.6875 16.0824 95.8574 16.5288 94.7704 16.5288C94.0194 16.5288 93.3375 16.312 92.7248 15.8783C92.122 15.4447 91.6476 14.8262 91.3017 14.0227C90.9559 13.2192 90.7829 12.2882 90.7829 11.2296C90.7829 10.1711 90.9559 9.24007 91.3017 8.43659C91.6476 7.63311 92.122 7.01456 92.7248 6.58094C93.3375 6.14731 94.0194 5.9305 94.7704 5.9305C95.7883 5.9305 96.5838 6.345 97.157 7.17398V6.08355H99.4694ZM95.1706 14.0801C95.7537 14.0801 96.2379 13.825 96.6233 13.3149C97.0087 12.792 97.2014 12.0969 97.2014 11.2296C97.2014 10.3624 97.0087 9.67369 96.6233 9.16355C96.2379 8.64065 95.7537 8.3792 95.1706 8.3792C94.5777 8.3792 94.0885 8.64065 93.7031 9.16355C93.3177 9.67369 93.125 10.3624 93.125 11.2296C93.125 12.0969 93.3177 12.792 93.7031 13.3149C94.0885 13.825 94.5777 14.0801 95.1706 14.0801ZM106.028 5.9305C106.769 5.9305 107.44 6.15369 108.043 6.60007C108.656 7.03369 109.135 7.65224 109.481 8.45572C109.827 9.24645 110 10.1711 110 11.2296C110 12.2882 109.827 13.2192 109.481 14.0227C109.135 14.8134 108.656 15.432 108.043 15.8783C107.44 16.312 106.769 16.5288 106.028 16.5288C105.01 16.5288 104.209 16.1143 103.626 15.2853V20.087H101.314V6.08355H103.522V7.26963C104.096 6.37688 104.931 5.9305 106.028 5.9305ZM105.627 14.0801C106.22 14.0801 106.705 13.825 107.08 13.3149C107.465 12.792 107.658 12.0969 107.658 11.2296C107.658 10.3624 107.465 9.67369 107.08 9.16355C106.705 8.64065 106.22 8.3792 105.627 8.3792C105.034 8.3792 104.545 8.64065 104.16 9.16355C103.784 9.67369 103.597 10.3624 103.597 11.2296C103.597 12.0969 103.784 12.792 104.16 13.3149C104.545 13.825 105.034 14.0801 105.627 14.0801Z" fill="#46D7F6"/>
<g filter="url(#filter0_i_366_295)">
<path d="M23.5139 11C23.5139 17.0751 18.6979 22 12.757 22C6.81606 22 2 17.0751 2 11C2 4.92486 6.81606 0 12.757 0C18.6979 0 23.5139 4.92486 23.5139 11Z" fill="#2C9EF0"/>
</g>
<g filter="url(#filter1_d_366_295)">
<path d="M21.0123 11C21.0123 15.4765 17.3162 19.1053 12.7569 19.1053C8.19763 19.1053 4.50159 15.4765 4.50159 11C4.50159 6.52362 8.19763 2.89478 12.7569 2.89478C17.3162 2.89478 21.0123 6.52362 21.0123 11Z" fill="#405AE2"/>
</g>
<g filter="url(#filter2_d_366_295)">
<path d="M18.0103 11.0001C18.0103 13.8778 15.6583 16.2106 12.7569 16.2106C9.85556 16.2106 7.50354 13.8778 7.50354 11.0001C7.50354 8.12236 9.85556 5.78955 12.7569 5.78955C15.6583 5.78955 18.0103 8.12236 18.0103 11.0001Z" fill="#877DF3"/>
</g>
<defs>
<filter id="filter0_i_366_295" x="2" y="0" width="21.5139" height="26" filterUnits="userSpaceOnUse" color-interpolation-filters="sRGB">
<feFlood flood-opacity="0" result="BackgroundImageFix"/>
<feBlend mode="normal" in="SourceGraphic" in2="BackgroundImageFix" result="shape"/>
<feColorMatrix in="SourceAlpha" type="matrix" values="0 0 0 0 0 0 0 0 0 0 0 0 0 0 0 0 0 0 127 0" result="hardAlpha"/>
<feOffset dy="4"/>
<feGaussianBlur stdDeviation="2"/>
<feComposite in2="hardAlpha" operator="arithmetic" k2="-1" k3="1"/>
<feColorMatrix type="matrix" values="0 0 0 0 0 0 0 0 0 0 0 0 0 0 0 0 0 0 0.25 0"/>
<feBlend mode="normal" in2="shape" result="effect1_innerShadow_366_295"/>
</filter>
<filter id="filter1_d_366_295" x="0.501587" y="2.89478" width="24.5107" height="24.2104" filterUnits="userSpaceOnUse" color-interpolation-filters="sRGB">
<feFlood flood-opacity="0" result="BackgroundImageFix"/>
<feColorMatrix in="SourceAlpha" type="matrix" values="0 0 0 0 0 0 0 0 0 0 0 0 0 0 0 0 0 0 127 0" result="hardAlpha"/>
<feOffset dy="4"/>
<feGaussianBlur stdDeviation="2"/>
<feComposite in2="hardAlpha" operator="out"/>
<feColorMatrix type="matrix" values="0 0 0 0 0 0 0 0 0 0 0 0 0 0 0 0 0 0 0.25 0"/>
<feBlend mode="normal" in2="BackgroundImageFix" result="effect1_dropShadow_366_295"/>
<feBlend mode="normal" in="SourceGraphic" in2="effect1_dropShadow_366_295" result="shape"/>
</filter>
<filter id="filter2_d_366_295" x="3.50354" y="5.78955" width="18.5068" height="18.4211" filterUnits="userSpaceOnUse" color-interpolation-filters="sRGB">
<feFlood flood-opacity="0" result="BackgroundImageFix"/>
<feColorMatrix in="SourceAlpha" type="matrix" values="0 0 0 0 0 0 0 0 0 0 0 0 0 0 0 0 0 0 127 0" result="hardAlpha"/>
<feOffset dy="4"/>
<feGaussianBlur stdDeviation="2"/>
<feComposite in2="hardAlpha" operator="out"/>
<feColorMatrix type="matrix" values="0 0 0 0 0 0 0 0 0 0 0 0 0 0 0 0 0 0 0.25 0"/>
<feBlend mode="normal" in2="BackgroundImageFix" result="effect1_dropShadow_366_295"/>
<feBlend mode="normal" in="SourceGraphic" in2="effect1_dropShadow_366_295" result="shape"/>
</filter>
</defs>
</svg>
